<svg width="358" height="253" viewBox="0 0 358 253" fill="none" xmlns="http://www.w3.org/2000/svg" xmlns:xlink="http://www.w3.org/1999/xlink">
<path d="M0 45C0 36.1635 7.16344 29 16 29H342C350.837 29 358 36.1634 358 45V215.785C358 221.989 354.413 227.627 348.689 230.018C327.863 238.716 276.625 257.863 241.883 251.853C197.367 244.153 165.303 212.183 119.541 201.449C90.0498 194.531 48.9228 206.706 23.4053 216.237C12.3814 220.355 0 212.346 0 200.578V45Z" fill="#FF9500"/>
<path d="M0 16C0 7.16346 7.16344 0 16 0H342C350.837 0 358 7.16344 358 16V186.785C358 192.989 354.413 198.627 348.689 201.018C327.863 209.716 276.625 228.863 241.883 222.853C197.367 215.153 165.303 183.183 119.541 172.449C90.0498 165.531 48.9228 177.706 23.4053 187.237C12.3814 191.355 0 183.346 0 171.578V16Z" fill="#071E68"/>
</svg>
