<svg width="563" height="253" viewBox="0 0 563 253" fill="none" xmlns="http://www.w3.org/2000/svg">
<path d="M0 45C0 36.1635 7.16344 29 16 29H547C555.837 29 563 36.1634 563 45V214.028C563 221.103 558.384 227.316 551.554 229.162C521.162 237.373 436.902 258.069 380.392 251.853C310.384 244.153 259.959 212.183 187.993 201.449C134.757 193.508 57.4097 210.723 20.7551 220.222C10.3581 222.917 0 215.111 0 204.37V45Z" fill="#FF9500"/>
<path d="M0 16C0 7.16347 7.16344 0 16 0H547C555.837 0 563 7.16344 563 16V185.028C563 192.103 558.384 198.316 551.554 200.162C521.162 208.374 436.902 229.069 380.392 222.853C310.384 215.153 259.959 183.183 187.993 172.449C134.757 164.508 57.4097 181.723 20.7551 191.222C10.3581 193.917 0 186.111 0 175.37V16Z" fill="#071E68"/>
</svg>
